<svg xmlns="http://www.w3.org/2000/svg" viewBox="0 0 55 54"><defs><style>.cls-1{fill:#fff}</style></defs><title>geotrellis_white_mark</title><g id="Layer_2" data-name="Layer 2"><g id="Layer_1-2" data-name="Layer 1"><rect width="7" height="7" x="19" y="19" class="cls-1"/><rect width="7" height="7" x="19" y="10" class="cls-1"/><polygon points="28 0 28 6.91 28 17 37 17 37 17 45 17 45 0 28 0" class="cls-1"/><polygon points="55 44 55 19 47.39 19 37 19 37 44 55 44" class="cls-1"/><polygon points="17 25.49 17 18.88 17 16.31 17 10 0 10 0 35 7 35 7 35 17 35 17 28.05 17 25.49" class="cls-1"/><polygon points="19 37 9 37 9 54 26 54 26 47 26 47 26 37 19 37 19 37" class="cls-1"/><rect width="7" height="7" x="28" y="19" class="cls-1"/><polygon points="28 28 28 35 27.56 35 35 35 35 28 28 28" class="cls-1"/><rect width="7" height="7" x="28" y="37" class="cls-1"/><rect width="7" height="7" x="19" y="28" class="cls-1"/></g></g></svg>