<svg xmlns="http://www.w3.org/2000/svg" xmlns:xlink="http://www.w3.org/1999/xlink" version="1.1" viewBox="0 0 251 43"><title>Climate Logo</title><desc>Created with Sketch.</desc><defs><polygon id="path-1" points="0 42.938 56.471 42.938 114.17 42.938 250.699 42.938 250.699 .832 0 .832"/></defs><g id="Page-1" fill="none" fill-rule="evenodd" stroke="none" stroke-width="1"><g id="Climate-Logo"><path id="Fill-1" fill="#fff" d="M19.4333303,32.4103102 C23.9678535,32.4103102 25.6161205,29.3461991 25.8522687,26.3992176 L38.0437197,26.3992176 C37.7479381,35.5353287 31.2693662,42.9379213 19.6694785,42.9379213 C6.35930508,42.9379213 0,35.5353287 0,24.5462269 L0,19.2261991 C0,8.23709722 6.35930508,0.83450463 19.6694785,0.83450463 C31.2693662,0.83450463 37.7479381,8.23709722 38.0437197,17.3755509 L25.8522687,17.3755509 C25.6161205,14.4262269 23.9678535,11.3597731 19.4333303,11.3597731 C15.0156885,11.3597731 12.8975103,14.1943102 12.8975103,18.6475787 L12.8975103,25.1271898 C12.8975103,29.5781157 15.0156885,32.4103102 19.4333303,32.4103102 Z"/><polygon id="Fill-3" fill="#fff" points="42.908 1.643 55.806 1.643 55.806 31.603 72.529 31.603 72.529 42.128 42.908 42.128"/><mask id="mask-2" fill="#fff"><use xlink:href="#path-1"/></mask><polygon id="Fill-5" fill="#fff" points="76.643 42.128 89.541 42.128 89.541 1.643 76.643 1.643"/><polygon id="Fill-7" fill="#fff" points="138.549 42.128 126.298 42.128 126.298 25.472 122.059 33.568 112.401 33.568 108.162 25.472 108.162 42.128 95.911 42.128 95.911 1.644 107.69 1.644 117.231 21.424 126.772 1.644 138.549 1.644"/><polygon id="Fill-8" fill="#fff" points="192.221 12.343 181.854 12.343 181.854 1.644 215.543 1.644 215.543 12.343 205.116 12.343 205.116 42.129 192.221 42.129"/><polygon id="Fill-9" fill="#fff" points="219.487 1.643 250.639 1.643 250.639 12.054 232.384 12.054 232.384 16.448 248.872 16.448 248.872 26.861 232.384 26.861 232.384 31.72 250.699 31.72 250.699 42.128 219.487 42.128"/><path id="Fill-10" fill="#fff" d="M172.900822,32.9959583 C172.762473,33.2513009 172.509627,33.4129398 172.235314,33.4129398 L157.904217,33.4129398 C157.627518,33.4129398 157.369901,33.2513009 157.241093,32.9959583 C157.107515,32.7406157 157.107515,32.4243657 157.25302,32.1713657 L164.423339,19.6431806 C164.561689,19.4018935 164.802608,19.2543102 165.069765,19.2543102 C165.334537,19.2543102 165.577842,19.4018935 165.713806,19.6431806 L172.884125,32.1713657 C173.027245,32.4243657 173.032016,32.7406157 172.900822,32.9959583 M187.408434,38.7845046 L166.920786,2.7085787 C166.527205,2.0128287 165.823531,1.58881944 165.069765,1.58881944 C164.313614,1.58881944 163.60994,2.0128287 163.216359,2.7085787 L142.728711,38.7845046 C142.316048,39.5060231 142.301736,40.4126065 142.683389,41.1528657 C143.067428,41.8907824 143.79257,42.3499306 144.579731,42.3499306 L185.557414,42.3499306 C186.342189,42.3499306 187.067331,41.893125 187.45137,41.1528657 C187.835409,40.4126065 187.818712,39.5060231 187.408434,38.7845046"/></g></g></svg>